<svg xmlns="http://www.w3.org/2000/svg" width="21" height="15" viewBox="0 0 21 15">
  <g fill="none" fill-rule="evenodd">
    <rect width="21" height="15" fill="#FFF"/>
    <g fill-rule="nonzero">
      <polygon fill="#DC171D" points="7.944 0 13.056 0 13.056 15 7.944 15"/>
      <polygon fill="#012A87" points="0 5.111 21 5.111 21 10.222 0 10.222"/>
      <polygon fill="#FFF" points="10.268 6.038 9.892 5.766 10.357 5.766 10.5 5.324 10.643 5.766 11.108 5.766 10.732 6.038 10.876 6.48 10.5 6.207 10.124 6.48"/>
      <polygon fill="#FFF" points="13.675 7.45 13.3 7.177 13.764 7.177 13.907 6.735 14.051 7.177 14.515 7.177 14.139 7.45 14.283 7.891 13.907 7.618 13.532 7.891"/>
      <polygon fill="#FFF" points="11.911 8.731 12.055 9.173 12.519 9.173 12.143 9.446 12.287 9.887 11.849 9.569 11.536 9.887 11.679 9.446 11.304 9.173 11.768 9.173"/>
      <polygon fill="#FFF" points="11.541 9.251 11.541 9.89 11.86 9.89" transform="rotate(-126 11.7 9.57)"/>
      <polygon fill="#FFF" points="6.86 7.45 6.485 7.177 6.949 7.177 7.093 6.735 7.236 7.177 7.7 7.177 7.325 7.45 7.468 7.891 7.093 7.618 6.717 7.891" transform="matrix(-1 0 0 1 14.185 0)"/>
      <polygon fill="#FFF" points="9.089 8.731 9.232 9.173 9.696 9.173 9.321 9.446 9.464 9.887 9.026 9.569 8.713 9.887 8.856 9.446 8.481 9.173 8.945 9.173" transform="matrix(-1 0 0 1 18.177 0)"/>
      <polygon fill="#FFF" points="9.14 9.251 9.14 9.89 9.459 9.89" transform="scale(1 -1) rotate(54 28.082 0)"/>
    </g>
  </g>
</svg>
