<svg xmlns="http://www.w3.org/2000/svg" width="21" height="15" viewBox="0 0 21 15">
  <g fill="none" fill-rule="evenodd">
    <rect width="21" height="15" fill="#3A7DCE"/>
    <path fill="#FFF" fill-rule="nonzero" d="M1.60344168,4.83838423 C1.50001276,4.63147536 1.50001276,4.63147536 1.50001276,4.424592 C1.44828554,4.424592 1.43858828,4.43431478 1.4086799,4.42617419 C1.37877151,4.41811015 1.36746655,4.61695499 1.27046845,4.57814043 C1.25431485,4.55874592 1.33998248,4.41492026 1.24704191,4.35512901 C1.21713352,4.33565794 1.25431485,4.21768313 1.24137667,4.16595591 C1.24137667,4.16595591 1.12340187,4.22735487 1.03449332,4.01079978 C0.990830136,3.95419841 0.931038883,4.06250148 0.931038883,4.06250148 C0.931038883,4.06250148 0.956889732,4.12877458 0.910036662,4.14495369 C0.843763557,4.09644188 0.795251746,4.12188443 0.711217346,4.05522853 C0.627157427,3.98854712 0.72900416,3.91219397 0.568973877,3.85561813 C0.672428313,3.59700756 0.672428313,3.64870925 0.931038883,3.54528034 C0.775857229,3.4418259 0.775857229,3.4418259 0.672428313,3.28664425 C0.517246659,3.23491703 0.465519441,3.18321533 0.310337788,3.0797609 C0.103454436,2.82112481 0,2.30390367 0,1.94183866 C0.130938507,1.82059741 0.310337788,2.35563089 0.568973877,2.51078702 C0.568973877,2.51078702 0.931038883,2.66596867 0.931038883,2.66596867 C1.13792223,2.76942311 1.18964945,2.87285203 1.34483111,2.97630646 C1.34483111,2.97630646 1.81035055,3.13148811 1.81035055,3.13148811 C2.0172339,3.28664425 2.12068834,3.49355312 2.27586999,3.54528034 C2.44396431,3.54528034 2.47634805,3.44846087 2.53024439,3.44243836 C2.83433,3.42684619 2.98951165,3.38767437 3.05011951,3.29634151 C3.11151847,3.22361207 3.25861057,3.33837147 3.67240279,3.18321533 C3.67240279,3.18321533 3.62070109,2.97630646 3.62070109,2.97630646 C3.62070109,2.97630646 3.73061186,2.88579021 3.87931166,2.92457924 C3.87527965,2.83003097 3.86555687,2.57787674 4.01203651,2.46411258 C3.92307692,2.37078923 3.9827661,2.30390367 3.9827661,2.30390367 C3.9827661,2.30390367 4.06521832,2.22469238 4.07489006,2.18266242 C4.03127791,1.95475133 4.11273488,1.95122969 4.13100656,1.88416549 C4.14925272,1.81712682 4.0606504,1.84009401 4.0856336,1.74766382 C4.11056576,1.65520812 4.26041392,1.63326169 4.28047193,1.55711269 C4.3006065,1.4809637 4.23775296,1.4427616 4.24137667,1.424592 C4.27370937,1.35186257 4.24625082,1.18051456 4.24137667,1.11424146 C4.51940728,1.03988645 4.60992353,0.813595822 4.70689611,0.907345344 C4.75862333,0.5969999 4.81035055,0.493550568 5.12068834,0.493550568 C5.16435152,0.39818824 5.00751112,0.317364143 5.06896112,0.286654457 C5.17241555,0.273723928 5.25160132,0.280190468 5.37289361,0.436982377 C5.41117226,0.486668067 5.41811346,0.364242732 5.45690249,0.351309651 C5.49569153,0.338379123 5.58853001,0.338177522 5.60233585,0.276957198 C5.61693277,0.213914811 5.63793499,0.131483011 5.68966221,0.028036231 C5.73329987,-0.0560160321 5.76724028,0.0603638282 5.80602931,0.225232532 C6.02426867,0.23331188 6.51724666,0.281808379 6.72413001,0.338379123 C6.87931166,0.378791171 6.9827661,0.297967074 7.1314659,0.281803276 C7.24137667,0.391716596 7.34483111,0.309284796 7.40301466,0.543657323 C7.48516064,0.670122332 7.61959527,0.554975045 7.64871256,0.592148719 C7.82168103,1.06898333 8.41650575,0.747320165 8.46175112,0.755404616 C8.53769597,0.755404616 8.63048342,0.968606498 8.69027467,0.963308732 C8.78745141,0.946943333 8.75994182,0.880675331 8.84481835,0.907345344 C8.82215738,1.08675994 9.01133048,1.29366115 9.01133048,1.42780741 C9.01133048,1.42780741 9.05736694,1.45044285 9.10003488,1.41063305 C9.14265177,1.37084878 9.18184911,1.2686065 9.21982154,1.27102571 C9.31033779,1.28395879 9.34700874,1.29558019 9.45133082,1.31381359 C9.73178574,1.40963781 9.87464167,1.43125249 9.98358271,1.48035124 C10.0342636,1.57308765 10.0833624,1.6205787 10.1860768,1.60325123 C10.2709533,1.6602609 10.209044,1.73492979 10.2591635,1.73977842 C10.3626179,1.6880512 10.3965583,1.63147536 10.4999872,1.68320257 C10.6034417,1.73492979 10.7068961,1.83838423 10.7586233,1.94183866 C10.7586233,1.99354036 10.7068961,2.20044923 10.7586233,2.51078702 C10.7844742,2.61424146 10.7970041,2.69625985 10.9081397,2.87366864 C10.8786141,3.05592606 11.0479589,3.36261461 11.0479589,3.4402182 C11.0479589,3.54364712 10.9655067,3.59700756 10.9137795,3.70043647 C11.1206883,3.85561813 10.9137795,4.1142287 10.8103505,4.26941035 C11.5862078,4.424592 11.2241428,4.73492979 11.8448183,4.57974814 C11.6896367,4.94181314 11.7445793,4.91274689 11.899761,5.27481189 C11.5893977,5.48172076 11.8933302,5.54472742 11.6864468,5.80333799 C11.6735086,5.8195171 11.8092447,6.02803368 12,6.02803368 C11.9482728,6.4418259 11.7930911,6.28664425 11.8448183,6.90734534 C11.4374825,6.89928131 11.6023358,7.37125708 11.3275717,7.32113757 C11.3437253,7.61692947 11.484361,7.64280584 11.4310261,7.94181314 C11.2241428,7.99354036 11.2241428,7.99354036 11.1206883,8.14872201 C11.1206883,8.14872201 10.9655067,8.0969948 10.9655067,8.0969948 C10.9137795,8.35560537 10.8103505,8.40733258 10.9655067,8.66596867 C10.9655067,8.66596867 10.7650797,8.67242501 10.7068961,8.66596867 C10.702022,8.75487722 10.7958047,8.77912037 10.8103505,8.87285203 C10.802261,8.91003336 10.5161408,9.07327905 10.2931039,9.0797609 C10.2349203,9.20745848 10.44826,9.34324562 10.4353474,9.4078855 C10.1928649,9.45473857 10.086195,9.75216369 10.086195,9.75216369 C10.086195,9.75216369 10.2106517,9.8022832 10.1896495,9.85561813 C10.1234019,9.80710631 10.086195,9.80389091 9.9827661,9.80389091 C9.93103888,9.81682909 9.80497452,9.80072654 9.68409054,10.0047262 C9.55141674,10.0484915 9.48879286,10.0326696 9.38814553,10.1657518 C9.34358918,10.0389729 9.27951071,10.1669512 9.20114155,10.2161265 C9.12284895,10.2653783 9.01737851,10.3877935 9.00321541,10.3825876 C9.00645633,10.3469884 9.05172722,10.2176831 9.05172722,10.2176831 C9.05172722,10.2176831 8.79309113,10.2694103 8.79309113,10.2694103 C8.79309113,10.2694103 8.7815565,10.2705332 8.76124329,10.2726002 C8.74090457,10.2746162 8.74634014,10.1216292 8.69731794,10.1271669 C8.64832127,10.1327556 8.50809381,10.3195809 8.46029653,10.3254248 C8.41257581,10.3312687 8.39746851,10.2659908 8.35633171,10.2716815 C8.31522044,10.2773723 8.23503943,10.46874 8.20592213,10.4738183 C8.17680484,10.4788967 8.06130539,10.3575023 7.96231679,10.374447 C7.45313417,10.5538973 7.37228966,10.020497 7.29310389,10.3211376 C7.18643405,10.2645362 7.20490988,10.2973793 7.09650473,10.325782 C7.02734797,10.3436199 7.02104475,10.2343471 6.95954372,10.2360314 C6.83649061,10.239502 6.84294695,10.3558946 6.77585723,10.3211376 C6.72094012,10.0786551 6.38952356,10.1222927 6.35721638,10.0188638 C6.3309317,9.91096906 6.50078684,9.91147944 6.55572946,9.83839273 C6.5977339,9.73292229 6.51186213,9.69288282 6.6823042,9.59113816 C6.90444798,9.4408817 6.7767504,9.38420377 6.81569255,9.27128175 C6.88535969,9.10824021 6.885768,9.06843042 6.82758445,8.92457924 C6.82758445,8.92457924 6.65461598,8.4590598 6.62067558,8.4590598 C6.51724666,8.42999355 6.51724666,8.63036953 6.36528041,8.68536319 C6.05494262,8.78879211 5.50702201,8.42348618 5.41163161,8.42348618 C5.3243818,8.4251194 4.92015924,8.51920832 4.93541966,8.31765846 C4.87499043,8.51361964 4.65274458,8.36369492 4.63904082,8.36369492 C4.43213195,8.36369492 4.51131772,8.5237252 4.37228966,8.51724335 C4.30923196,8.49624113 3.67240279,8.4590598 3.67240279,8.4590598 C3.67240279,8.4590598 3.67240279,8.56251424 3.67240279,8.56251424 C3.67240279,8.56251424 3.25861057,8.35560537 3.25861057,8.35560537 C3.25861057,8.35560537 2.89654556,8.25217645 2.89654556,8.25217645 C2.58620778,8.14872201 2.74138943,7.89008593 2.22414277,8.04526758 C2.22414277,8.04526758 2.22414277,7.73492979 2.22414277,7.73492979 C2.22414277,7.73492979 1.9655322,7.73492979 1.9655322,7.73492979 C2.06896112,7.1142287 1.9655322,7.424592 1.91380498,6.85561813 C1.91380498,6.85561813 1.70689611,6.90734534 1.70689611,6.90734534 C1.50001276,6.62770703 1.99459846,6.68104196 1.55173998,6.49355312 C1.55173998,6.49355312 1.55980401,6.18479752 1.44828554,6.28664425 C1.4256501,6.29958243 1.50001276,6.4418259 1.50001276,6.4418259 C1.08622054,6.39009868 0.9827661,6.28664425 0.9827661,5.87285203 C0.9827661,5.87285203 1.32382889,5.92136384 1.29310389,5.87285203 C1.2446176,5.79527396 1.18158542,5.29096548 1.19289038,5.25702508 C1.18804175,5.18911875 1.50971002,5.01780903 1.44746893,4.8545123 C1.48707458,4.83996641 1.60344168,4.83838423 1.60344168,4.83838423" transform="translate(4 2)"/>
  </g>
</svg>
