<svg xmlns="http://www.w3.org/2000/svg" width="21" height="15" viewBox="0 0 21 15">
  <g fill="none" fill-rule="evenodd">
    <rect width="21" height="15" fill="#FFF"/>
    <g fill-rule="nonzero">
      <rect width="21" height="7.5" fill="#000"/>
      <rect width="21" height="7.5" y="7.5" fill="#007A3D"/>
      <rect width="20" height="5" x="1" y="5" fill="#FFF"/>
      <polygon fill="#C4111B" points="0 0 10 7.5 0 15"/>
      <path fill="#C4111B" d="M14,5.5 C14.1285036,5.5 14.2541767,5.51211927 14.3759385,5.5352772 C13.4497073,5.71059147 12.75,6.52358303 12.75,7.5 C12.75,8.47641697 13.4497073,9.28940853 14.3750597,9.46491238 C14.2541767,9.48788073 14.1285036,9.5 14,9.5 C12.8954305,9.5 12,8.6045695 12,7.5 C12,6.3954305 12.8954305,5.5 14,5.5 Z M14.326815,6.101191 L14.6476105,7.099209 L15.6958885,7.1072745 L14.845848,7.720774 L15.1621115,8.720238 L14.3159635,8.1013835 L13.463147,8.711024 L13.790239,7.715051 L12.9469045,7.0923645 L13.9952075,7.0956695 L14.326815,6.101191 Z"/>
    </g>
  </g>
</svg>
